<svg width="250" height="250" viewBox="0 0 250 250" fill="none" xmlns="http://www.w3.org/2000/svg">
<rect x="3" y="3" width="244" height="244" rx="17" stroke="#B8D3DE" stroke-width="6"/>
<path d="M41.6667 104.167V62.5001C41.6667 50.9941 50.9941 41.6667 62.5 41.6667H125M41.9472 190.927C43.5818 200.802 52.1614 208.333 62.5 208.333H187.5C199.006 208.333 208.333 199.006 208.333 187.5V147.814M41.9472 190.927C41.7627 189.813 41.6667 188.668 41.6667 187.5V156.25M41.9472 190.927L81.746 151.128C88.8297 144.93 99.1895 144.251 107.021 149.473L112.325 153.008C119.873 158.041 129.811 157.609 136.896 151.942L164.48 129.874C171.511 124.249 181.305 123.807 188.779 128.629C189.607 129.164 190.345 129.825 191.042 130.522L208.333 147.814M208.333 147.814V62.5001C208.333 50.9941 199.006 41.6667 187.5 41.6667H177.083M114.583 93.7501C114.583 105.256 105.256 114.583 93.75 114.583C82.244 114.583 72.9167 105.256 72.9167 93.7501C72.9167 82.2441 82.244 72.9167 93.75 72.9167C105.256 72.9167 114.583 82.2441 114.583 93.7501Z" stroke="#B8D3DE" stroke-width="10" stroke-linecap="round" stroke-linejoin="round"/>
</svg>
